<svg width="110" height="104" viewBox="0 0 110 104" fill="none" xmlns="http://www.w3.org/2000/svg">
<path d="M73.5856 7.8269C73.5856 7.8269 56.4762 2.1069 39.6594 11.2735C22.8426 20.44 14.3374 38.6026 7.04 53.1543C-0.257401 67.7059 3.905 82.4823 16.72 89.2132C29.535 95.944 38.28 85.9871 56.2672 85.4691C74.2544 84.9512 79.0966 87.3807 94.0434 77.7731C108.99 68.1656 111.718 45.5103 99.9658 28.7663C88.2134 12.0223 73.5856 7.8269 73.5856 7.8269Z" fill="#DD8560"/>
<path opacity="0.7" d="M73.5856 7.8269C73.5856 7.8269 56.4762 2.1069 39.6594 11.2735C22.8426 20.44 14.3374 38.6026 7.04 53.1543C-0.257401 67.7059 3.905 82.4823 16.72 89.2132C29.535 95.944 38.28 85.9871 56.2672 85.4691C74.2544 84.9512 79.0966 87.3807 94.0434 77.7731C108.99 68.1656 111.718 45.5103 99.9658 28.7663C88.2134 12.0223 73.5856 7.8269 73.5856 7.8269Z" fill="white"/>
<path d="M96.1048 70.7075L104.821 64.4966L94.9674 69.1537L100.652 59.958L93.0732 68.199L95.1324 58.839L96.1048 59.047L95.2358 58.3585L95.6758 56.3201L103.18 57.1334L93.4516 54.1465L103.431 52.4825H92.18L100.896 46.2716L91.0426 50.9308L95.4954 43.7257L100.021 44.72L96.58 41.9806L96.7384 41.7248L96.536 41.9452L96.096 41.6062L105.697 42.6462C105.732 42.6524 105.769 42.6453 105.799 42.6265C105.829 42.6077 105.85 42.5786 105.857 42.5454C105.865 42.5122 105.859 42.4775 105.84 42.4486C105.821 42.4196 105.791 42.3988 105.756 42.3904L97.3588 39.8112L105.772 38.403C105.806 38.3972 105.837 38.3793 105.859 38.3529C105.88 38.3265 105.89 38.2936 105.887 38.2605C105.884 38.2274 105.868 38.1965 105.842 38.174C105.816 38.1515 105.783 38.139 105.747 38.1388H96.1048L103.737 32.7017C103.766 32.6854 103.787 32.6589 103.795 32.6279C103.804 32.5969 103.799 32.5639 103.782 32.5364C103.764 32.5088 103.736 32.4888 103.704 32.4808C103.671 32.4728 103.636 32.4774 103.607 32.4937L94.9674 36.5788L99.9834 28.4668C100.003 28.4417 100.011 28.4104 100.005 28.3798C100 28.3492 99.9825 28.3218 99.9559 28.3036C99.9294 28.2854 99.8962 28.2779 99.8639 28.2827C99.8315 28.2876 99.8025 28.3045 99.7832 28.3296L93.0732 35.6283L95.5174 24.5086C95.5209 24.487 95.5161 24.4649 95.5038 24.4464C95.4916 24.4278 95.4727 24.414 95.4506 24.4075C95.4286 24.401 95.4048 24.4021 95.3835 24.4107C95.3623 24.4194 95.345 24.4349 95.3348 24.4545L90.7984 34.7921L90.4046 25.0161C90.4046 24.9747 90.3872 24.9351 90.3563 24.9058C90.3253 24.8766 90.2834 24.8601 90.2396 24.8601C90.1958 24.8601 90.1539 24.8766 90.1229 24.9058C90.092 24.9351 90.0746 24.9747 90.0746 25.0161L89.2826 35.0251L84.678 25.376C84.6638 25.3462 84.6382 25.3226 84.6063 25.3099C84.5744 25.2973 84.5386 25.2966 84.5062 25.308C84.4738 25.3193 84.4472 25.3419 84.4317 25.3711C84.4162 25.4004 84.413 25.4341 84.4228 25.4654L87.6392 36.1212L79.5982 27.8283L86.3016 37.5564L86.2818 37.7977L76.6766 31.3185L84.7198 38.5257L76.6128 34.9772C76.6059 34.9731 76.5982 34.9704 76.5901 34.9691C76.582 34.9678 76.5738 34.9681 76.5658 34.9698C76.5578 34.9715 76.5503 34.9747 76.5437 34.9792C76.537 34.9837 76.5313 34.9894 76.527 34.996C76.5227 35.0025 76.5197 35.0098 76.5184 35.0174C76.517 35.0251 76.5173 35.0329 76.5191 35.0404C76.521 35.0479 76.5244 35.055 76.5291 35.0613C76.5339 35.0676 76.5399 35.073 76.5468 35.0771L81.532 38.2574L81.8708 40.1419L77.3256 39.5824C77.3072 39.5791 77.2882 39.5828 77.2727 39.5927C77.2573 39.6027 77.2466 39.618 77.2431 39.6354C77.2396 39.6528 77.2436 39.6708 77.2541 39.6854C77.2646 39.7 77.2808 39.7101 77.2992 39.7134L82.0204 40.976L82.2404 42.1512L78.1 42.7939L76.78 41.0092L82.72 52.3556L73.6054 46.7251L82.0886 54.1465L72.6836 50.5065L81.2042 54.8641L72.38 54.1424L80.96 56.058L75.0002 57.3435L81.213 56.8942L77.044 59.5212L84.3304 57.668L86.68 65.52C86.68 66.144 86.6998 66.9073 86.7108 67.7248L79.5916 60.3824L86.6316 70.5848L76.6788 63.8726L85.998 72.384L75.438 66.9323L85.107 73.0995L76.362 72.0241L84.854 74.2955L78.0538 75.3688L85.107 75.1316L80.938 77.7587L86.7724 76.2736C86.7592 77.3136 86.7438 78.5304 86.7284 79.7326C86.7108 81.2177 86.6932 82.6446 86.6822 83.6035H84.1698C83.9748 83.6043 83.7833 83.6525 83.6137 83.7436C83.4442 83.8347 83.3023 83.9655 83.2018 84.1235L80.4958 88.3833C80.2839 88.7199 80.1452 89.093 80.0878 89.4809C80.0303 89.8688 80.0554 90.2636 80.1614 90.6422L81.3648 94.875C81.4556 95.1958 81.6557 95.4795 81.934 95.6821C82.2124 95.8847 82.5535 95.9951 82.9048 95.9961H95.2248C95.5758 95.994 95.9164 95.8833 96.1946 95.6808C96.4727 95.4784 96.673 95.1953 96.7648 94.875L97.966 90.6422C98.0727 90.2637 98.098 89.8687 98.0406 89.4808C97.9832 89.0928 97.8441 88.7197 97.6316 88.3833L94.9278 84.1235C94.8274 83.9649 94.6853 83.8337 94.5152 83.7425C94.3452 83.6514 94.1531 83.6035 93.9576 83.6035H90.8776C90.8776 81.3862 90.904 78.4035 90.9194 75.2835L100.003 77.2824L96.0872 74.1769L107.087 75.3708L97.3676 72.384L107.349 70.72L96.1048 70.7075ZM95.6472 56.3139L94.8772 58.0694L92.18 55.9395L95.6472 56.3139ZM95.0048 43.6072L90.9326 48.0355C90.9172 45.9388 90.9018 44.0211 90.8908 42.7003L95.0048 43.6072ZM86.9528 60.1785C86.8032 59.4734 86.889 58.032 86.977 57.0336L89.122 57.5078C88.99 57.8926 88.9504 58.3627 88.8866 59.1468C88.869 59.3548 88.8514 59.592 88.8272 59.854C88.759 60.6299 88.6292 60.7942 88.4158 61.0646C88.1741 61.359 87.9798 61.6856 87.8394 62.0339C87.6623 62.6293 87.5466 63.2395 87.494 63.856L87.3202 63.492C87.2931 62.3799 87.1703 61.2717 86.9528 60.1785ZM88.451 62.2585C88.5707 61.9596 88.7367 61.6792 88.9438 61.4265C89.2276 61.0646 89.4058 60.7817 89.485 59.8936C89.5092 59.6294 89.5268 59.3944 89.5444 59.1822C89.6082 58.4022 89.6434 57.9592 89.7644 57.6368L90.0592 57.7012L89.2826 67.6L88.0286 64.9667C88.165 63.648 88.3124 62.5955 88.451 62.2648V62.2585ZM89.155 49.9595L90.255 44.9904C90.255 46.1198 90.2748 47.4032 90.2836 48.7344L89.155 49.9595ZM89.5752 42.9852L86.8824 49.1296L86.6624 43.732L89.5752 42.9852ZM86.4226 37.7166L86.6294 38.0161L86.4292 37.8809L86.4226 37.7166ZM85.7934 43.9566L85.3666 49.3646L83.7144 44.4787L85.7934 43.9566ZM83.424 43.628L83.0874 42.64L85.1136 42.5713L83.424 43.628ZM81.62 38.3052L85.107 40.5308L82.247 40.1793L81.62 38.3052ZM82.5682 41.1132L84.854 41.7248L82.874 42.0368L82.5682 41.1132ZM78.1 42.798L82.3306 42.6545L82.599 44.15L80.9512 45.19L82.7112 44.7449L83.7342 50.4462L78.1 42.798ZM86.3082 57.1604C86.2246 58.1817 86.1564 59.5649 86.3082 60.2992C86.4094 60.7755 86.4886 61.2996 86.548 61.8571L84.5262 57.616L86.3082 57.1604ZM87.34 83.5993C87.34 82.6488 87.3686 81.2177 87.3862 79.7347C87.4016 78.4638 87.4192 77.1721 87.4324 76.1009L90.2682 75.3792C90.2528 78.4617 90.2374 81.4112 90.2264 83.5993H87.34ZM90.9876 57.9196L94.6 58.7121L90.9766 66.9552C90.992 63.6272 91.003 60.8816 91.003 59.7604C91.003 59.2904 91.0008 58.656 90.9964 57.9196H90.9876Z" fill="#C7C7C7"/>
<path d="M81.51 23.9198C86.1879 23.9198 89.98 20.3345 89.98 15.9118C89.98 11.4891 86.1879 7.90381 81.51 7.90381C76.8322 7.90381 73.04 11.4891 73.04 15.9118C73.04 20.3345 76.8322 23.9198 81.51 23.9198Z" stroke="#263238" stroke-miterlimit="10" stroke-linecap="round"/>
<path d="M81.51 23.1418C85.7334 23.1418 89.1572 19.9048 89.1572 15.9117C89.1572 11.9187 85.7334 8.68164 81.51 8.68164C77.2866 8.68164 73.8628 11.9187 73.8628 15.9117C73.8628 19.9048 77.2866 23.1418 81.51 23.1418Z" stroke="#263238" stroke-miterlimit="10" stroke-linecap="round"/>
<path d="M84.5438 16.8019L81.51 15.9116L85.1026 10.9883" stroke="#263238" stroke-miterlimit="10" stroke-linecap="round"/>
<path d="M81.51 16.3175C81.7469 16.3175 81.939 16.136 81.939 15.9119C81.939 15.6879 81.7469 15.5063 81.51 15.5063C81.2731 15.5063 81.081 15.6879 81.081 15.9119C81.081 16.136 81.2731 16.3175 81.51 16.3175Z" fill="#263238" stroke="#263238" stroke-miterlimit="10"/>
<path d="M78.551 13.6965C79.4076 13.6965 80.102 13.0399 80.102 12.2301C80.102 11.4202 79.4076 10.7637 78.551 10.7637C77.6944 10.7637 77 11.4202 77 12.2301C77 13.0399 77.6944 13.6965 78.551 13.6965Z" stroke="#263238" stroke-miterlimit="10" stroke-linecap="round"/>
<path d="M79.2154 14.7677C79.2154 14.8298 79.1959 14.8905 79.1594 14.9422C79.1229 14.9938 79.071 15.0341 79.0103 15.0579C78.9496 15.0816 78.8828 15.0879 78.8184 15.0757C78.7539 15.0636 78.6948 15.0337 78.6483 14.9898C78.6018 14.9459 78.5702 14.8899 78.5574 14.829C78.5446 14.768 78.5511 14.7049 78.5763 14.6475C78.6014 14.5901 78.644 14.5411 78.6986 14.5065C78.7533 14.472 78.8175 14.4536 78.8832 14.4536C78.9268 14.4536 78.97 14.4617 79.0103 14.4775C79.0506 14.4933 79.0872 14.5164 79.1181 14.5456C79.1489 14.5748 79.1734 14.6094 79.1901 14.6475C79.2068 14.6856 79.2154 14.7264 79.2154 14.7677Z" stroke="#263238" stroke-miterlimit="10" stroke-linecap="round"/>
<path d="M10.3334 15.8081H53.9836V95.8943H7.72641V15.8081H9.02441" stroke="#263238" stroke-miterlimit="10"/>
<path d="M52.5822 17.5405H38.5638V94.1594H52.5822V17.5405Z" stroke="#263238" stroke-miterlimit="10"/>
<path d="M36.96 17.5405H23.7446V94.1594H36.96V17.5405Z" stroke="#263238" stroke-miterlimit="10"/>
<path d="M22.143 38.3803V36.9888" stroke="#263238" stroke-miterlimit="10"/>
<path d="M22.143 35.7509V17.5405H9.12781V94.1594H22.143V40.0815" stroke="#263238" stroke-miterlimit="10"/>
<path d="M29.8276 95.9107V47.8086C29.8276 47.5593 29.8796 47.3125 29.9805 47.0822C30.0815 46.8519 30.2295 46.6427 30.416 46.4665C30.6026 46.2903 30.824 46.1506 31.0677 46.0554C31.3114 45.9602 31.5725 45.9113 31.8362 45.9116H64.68C65.2121 45.9116 65.7225 46.1115 66.0987 46.4672C66.475 46.823 66.6864 47.3055 66.6864 47.8086V95.8358" stroke="#263238" stroke-width="4" stroke-linejoin="round"/>
<path d="M68.7368 54.6729L67.7688 54.0489C66.3662 53.1063 65.2735 51.8085 64.6162 50.3049L63.8 48.5244H62.5174L61.71 50.3049C61.0527 51.8085 59.96 53.1063 58.5574 54.0489L57.5894 54.6729C57.3103 54.8676 57.0847 55.1228 56.9315 55.4171C56.7784 55.7113 56.7022 56.0361 56.7094 56.3639H69.5948C69.6045 56.0378 69.5317 55.7143 69.3825 55.4201C69.2332 55.126 69.0119 54.8698 68.7368 54.6729ZM63.5272 55.6151H57.9898C57.9898 55.0535 58.938 54.5335 59.3098 54.2486L59.9698 53.7348C60.9707 52.9315 61.7246 51.8883 62.1522 50.7147L62.711 49.2732H63.591L64.1498 50.7147C64.5773 51.8889 65.3321 52.9323 66.3344 53.7348L66.9944 54.2486C67.3706 54.5335 68.299 55.0535 68.299 55.6151H63.5272Z" fill="white" stroke="#263238" stroke-linecap="round" stroke-linejoin="round"/>
<path d="M63.1598 48.4951V47.1888C63.1598 47.1888 63.9496 46.6293 63.9496 45.8202C63.9496 45.0111 63.2896 44.6991 62.568 44.9487" stroke="#263238" stroke-linecap="round" stroke-linejoin="round"/>
<path d="M59.4792 52.7007C59.4792 52.7007 60.9466 54.3002 62.7924 54.3272C64.7504 54.3564 67.0516 52.736 67.0516 52.736C67.5763 53.1641 68.1478 53.5378 68.7566 53.8509C69.7818 54.3792 70.4572 55.153 70.994 56.4946C71.5946 57.9901 72.9168 62.0565 72.9168 62.0565L69.1064 62.2312L69.6278 70.4056H56.9514L57.8094 62.0856H54.12C54.12 62.0856 55.3454 56.5903 55.9064 55.5336C56.4674 54.477 59.4792 52.7007 59.4792 52.7007Z" fill="white" stroke="#263238" stroke-linecap="round" stroke-linejoin="round"/>
<path d="M57.8094 62.0775L58.003 57.7095" stroke="#263238" stroke-linecap="round" stroke-linejoin="round"/>
<path d="M69.1064 62.2314L68.8072 57.9902" stroke="#263238" stroke-linecap="round" stroke-linejoin="round"/>
<path d="M66.7634 54.6729L65.7954 54.0489C64.3928 53.1063 63.3001 51.8085 62.6428 50.3049L61.8354 48.5244H60.5528L59.7454 50.3049C59.0889 51.8089 57.996 53.1068 56.5928 54.0489L55.6248 54.6729C55.3457 54.8676 55.1201 55.1228 54.967 55.4171C54.8138 55.7113 54.7376 56.0361 54.7448 56.3639H67.6302C67.6389 56.0371 67.5648 55.7131 67.414 55.4189C67.2632 55.1247 67.0401 54.8689 66.7634 54.6729ZM61.5538 55.6151H56.0164C56.0164 55.0535 56.9646 54.5335 57.3364 54.2486L58.0074 53.7348C59.0084 52.9315 59.7622 51.8883 60.1898 50.7147L60.7486 49.2732H61.6286L62.1874 50.7147C62.615 51.8889 63.3697 52.9323 64.372 53.7348L65.032 54.2486C65.4082 54.5335 66.3366 55.0535 66.3366 55.6151H61.5538Z" fill="white" stroke="#263238" stroke-linecap="round" stroke-linejoin="round"/>
<path d="M61.1864 48.4951V47.1888C61.1864 47.1888 61.9762 46.6293 61.9762 45.8202C61.9762 45.0111 61.3162 44.6991 60.5946 44.9487" stroke="#263238" stroke-linecap="round" stroke-linejoin="round"/>
<path d="M57.5058 52.7007C57.5058 52.7007 58.9732 54.3002 60.819 54.3272C62.777 54.3564 65.0782 52.736 65.0782 52.736C65.6029 53.1641 66.1745 53.5378 66.7832 53.8509C67.8106 54.3792 68.4838 55.153 69.0206 56.4946C69.6212 57.9901 70.9456 62.0565 70.9456 62.0565L67.133 62.2312L67.6544 70.4056H54.978L55.836 62.0856H52.14C52.14 62.0856 53.3632 56.5757 53.922 55.5357C54.4808 54.4957 57.5058 52.7007 57.5058 52.7007Z" fill="#6B6B6B" stroke="#263238" stroke-linecap="round" stroke-linejoin="round"/>
<path d="M55.836 62.0775L56.0296 57.7095" stroke="#263238" stroke-linecap="round" stroke-linejoin="round"/>
<path d="M67.133 62.2314L66.8338 57.9902" stroke="#263238" stroke-linecap="round" stroke-linejoin="round"/>
<path d="M55.8602 50.3921L59.2944 50.5481V64.455H55.2156L55.8602 50.3921Z" fill="white" stroke="#263238" stroke-linecap="round" stroke-linejoin="round"/>
<path d="M63.2962 54.3877L62.3282 53.7637C60.925 52.8212 59.8315 51.5235 59.1734 50.0197L58.3682 48.2393H57.0856L56.2782 50.0197C55.6209 51.5234 54.5282 52.8211 53.1256 53.7637L52.1576 54.3877C51.8785 54.5824 51.6529 54.8377 51.4997 55.1319C51.3466 55.4262 51.2704 55.7509 51.2776 56.0788H64.163C64.1717 55.752 64.0975 55.4279 63.9467 55.1338C63.796 54.8396 63.5729 54.5838 63.2962 54.3877ZM58.08 55.3279H52.5492C52.5492 54.7663 53.4952 54.2463 53.8692 53.9593L54.5292 53.4476C55.5309 52.6445 56.2855 51.6013 56.7138 50.4274L57.2726 48.986H58.1526L58.7114 50.4274C59.1425 51.606 59.9027 52.6524 60.9114 53.4559L61.5824 53.9676C61.9564 54.2546 62.887 54.7746 62.887 55.3362L58.08 55.3279Z" fill="white" stroke="#263238" stroke-linecap="round" stroke-linejoin="round"/>
<path d="M57.7192 48.2102V46.9039C57.7192 46.9039 58.509 46.3423 58.509 45.5332C58.509 44.7241 57.849 44.4142 57.1274 44.6617" stroke="#263238" stroke-linecap="round" stroke-linejoin="round"/>
<path d="M55.8602 50.3919L57.3496 62.8032L59.18 50.0195C59.18 50.0195 62.2974 53.0355 63.3226 53.5555C64.3478 54.0755 65.2806 54.7911 65.56 56.1992C65.8394 57.6074 67.32 71.7098 67.32 71.7098L63.8704 71.8866L64.1872 79.8717H50.2678L51.106 71.5517H47.8434C47.8434 71.5517 49.8938 56.3074 50.4526 55.2487C51.0114 54.1899 55.8602 50.3919 55.8602 50.3919Z" fill="white" stroke="#263238" stroke-linecap="round" stroke-linejoin="round"/>
<path d="M55.8602 50.3921L57.6906 63.6292L57.2506 64.1804L53.1718 52.7508C53.1718 52.7508 54.4632 50.7873 55.8602 50.3921Z" fill="white" stroke="#263238" stroke-linecap="round" stroke-linejoin="round"/>
<path d="M59.18 50.0199L56.6786 67.4919L62.3524 52.624C62.3524 52.624 59.1558 49.7266 59.18 50.0199Z" fill="white" stroke="#263238" stroke-linecap="round" stroke-linejoin="round"/>
<path d="M50.4526 55.2383C50.4526 55.2383 47.7884 67.4832 47.2054 70.3765C46.6224 73.2698 46.3254 77.9498 46.3254 77.9498L51.4228 78.0871L52.8792 57.4327" fill="white"/>
<path d="M50.4526 55.2383C50.4526 55.2383 47.7884 67.4832 47.2054 70.3765C46.6224 73.2698 46.3254 77.9498 46.3254 77.9498L51.4228 78.0871L52.8792 57.4327" stroke="#263238" stroke-linecap="round" stroke-linejoin="round"/>
<path d="M65.2212 55.2383C65.2212 55.2383 67.8854 67.4832 68.4684 70.3765C69.0514 73.2698 69.3484 77.9498 69.3484 77.9498L64.251 78.0871L62.7946 57.4327" fill="white"/>
<path d="M65.2212 55.2383C65.2212 55.2383 67.8854 67.4832 68.4684 70.3765C69.0514 73.2698 69.3484 77.9498 69.3484 77.9498L64.251 78.0871L62.7946 57.4327" stroke="#263238" stroke-linecap="round" stroke-linejoin="round"/>
<path d="M56.672 67.4834V80.0154" stroke="#263238" stroke-linecap="round" stroke-linejoin="round"/>
<path d="M57.86 54.6729L56.892 54.0489C55.4901 53.1056 54.3975 51.8081 53.7394 50.3049L52.932 48.5244H51.656L50.8486 50.3049C50.1905 51.8081 49.0979 53.1056 47.696 54.0489L46.7258 54.6729C46.4467 54.8676 46.2211 55.1228 46.0679 55.4171C45.9148 55.7113 45.8386 56.0361 45.8458 56.3639H58.74C58.7472 56.0361 58.671 55.7113 58.5179 55.4171C58.3647 55.1228 58.1391 54.8676 57.86 54.6729ZM52.6504 55.6151H47.1174C47.1174 55.0535 48.0656 54.5335 48.4374 54.2486L49.0974 53.7348C50.0991 52.9321 50.8531 51.8887 51.2798 50.7147L51.8386 49.2732H52.7186L53.2796 50.7147C53.7063 51.8887 54.4603 52.9321 55.462 53.7348L56.133 54.2486C56.507 54.5335 57.4354 55.0535 57.4354 55.6151H52.6504Z" fill="white" stroke="#263238" stroke-linecap="round" stroke-linejoin="round"/>
<path d="M52.2874 48.4951V47.1888C52.2874 47.1888 53.0772 46.6293 53.0772 45.8202C53.0772 45.0111 52.4172 44.6991 51.6956 44.9487" stroke="#263238" stroke-linecap="round" stroke-linejoin="round"/>
<path d="M50.4284 50.677L51.92 54.7309L53.7438 50.3047C53.7438 50.3047 56.8612 53.3207 57.8864 53.8407C58.9116 54.3607 59.8422 55.0741 60.1216 56.4844C60.401 57.8946 61.8926 71.9928 61.8926 71.9928L58.4452 72.1696L58.7554 80.1444H44.836L45.6742 71.8244H42.4138C42.4138 71.8244 44.4642 56.5759 45.023 55.5359C45.5818 54.4959 50.4284 50.677 50.4284 50.677Z" fill="#263238" stroke="#263238" stroke-linecap="round" stroke-linejoin="round"/>
<path d="M49.0314 51.6465L49.8696 55.9646L51.6406 53.1462L50.523 50.1489L49.0314 51.6465Z" fill="white" stroke="#263238" stroke-linecap="round" stroke-linejoin="round"/>
<path d="M53.7438 50.3047L52.1994 53.2333L53.7834 56.1412L55.0902 51.2948L53.7438 50.3047Z" fill="white" stroke="#263238" stroke-linecap="round" stroke-linejoin="round"/>
<path d="M58.4452 72.1799L57.6994 58.7847" stroke="#263238" stroke-linecap="round" stroke-linejoin="round"/>
<path d="M45.6742 71.8283L46.981 58.7847" stroke="#263238" stroke-linecap="round" stroke-linejoin="round"/>
<path d="M52.8154 54.6729L51.8452 54.0489C50.4433 53.1056 49.3507 51.8081 48.6926 50.3049L47.8852 48.5244H46.6048L45.7974 50.3049C45.1393 51.8081 44.0467 53.1056 42.6448 54.0489L41.6768 54.6729C41.3974 54.8674 41.1716 55.1225 41.0184 55.4168C40.8653 55.7112 40.7893 56.036 40.7968 56.3639H53.68C53.689 56.0373 53.6151 55.7134 53.4647 55.4192C53.3143 55.1251 53.0917 54.8692 52.8154 54.6729ZM47.6058 55.6151H42.0684C42.0684 55.0535 43.0144 54.5335 43.3884 54.2486L44.0594 53.7348C45.0611 52.9321 45.8151 51.8887 46.2418 50.7147L46.8006 49.2732H47.6806L48.2394 50.7147C48.6661 51.8887 49.4201 52.9321 50.4218 53.7348L51.0928 54.2486C51.4668 54.5335 52.3952 55.0535 52.3952 55.6151H47.6058Z" fill="white" stroke="#263238" stroke-linecap="round" stroke-linejoin="round"/>
<path d="M47.2384 48.4951V47.1888C47.2384 47.1888 48.0282 46.6293 48.0282 45.8202C48.0282 45.0111 47.3682 44.6991 46.6444 44.9487" stroke="#263238" stroke-linecap="round" stroke-linejoin="round"/>
<path d="M45.3772 50.677L46.86 54.7309L48.6838 50.3047C48.6838 50.3047 51.8012 53.3207 52.8264 53.8407C53.8516 54.3607 54.7844 55.0741 55.0638 56.4844C55.3432 57.8946 56.8238 71.9928 56.8238 71.9928L53.394 72.1759L53.7064 80.1506H39.7848L40.6252 71.8306H37.3626C37.3626 71.8306 39.413 56.5759 39.9718 55.5359C40.5306 54.4959 45.3772 50.677 45.3772 50.677Z" fill="#6B6B6B" stroke="#263238" stroke-linecap="round" stroke-linejoin="round"/>
<path d="M43.9802 51.6465L44.8184 55.9646L46.5894 53.1462L45.4718 50.1489L43.9802 51.6465Z" fill="white" stroke="#263238" stroke-linecap="round" stroke-linejoin="round"/>
<path d="M48.6926 50.3047L47.1482 53.2333L48.7344 56.1412L50.039 51.2948L48.6926 50.3047Z" fill="white" stroke="#263238" stroke-linecap="round" stroke-linejoin="round"/>
<path d="M53.394 72.1799L52.6482 58.7847" stroke="#263238" stroke-linecap="round" stroke-linejoin="round"/>
<path d="M40.6252 71.8283L41.9298 58.7847" stroke="#263238" stroke-linecap="round" stroke-linejoin="round"/>
<path d="M48.158 54.6729L47.19 54.0489C45.7874 53.1063 44.6947 51.8085 44.0374 50.3049L43.23 48.5244H41.9474L41.14 50.3049C40.4827 51.8085 39.39 53.1063 37.9874 54.0489L37.0194 54.6729C36.7403 54.8676 36.5147 55.1228 36.3615 55.4171C36.2084 55.7113 36.1322 56.0361 36.1394 56.3639H49.0248C49.0335 56.0371 48.9594 55.7131 48.8086 55.4189C48.6578 55.1247 48.4347 54.8689 48.158 54.6729ZM42.9484 55.6151H37.411C37.411 55.0535 38.357 54.5335 38.731 54.2486L39.402 53.7348C40.4014 52.931 41.1536 51.8878 41.58 50.7147L42.1388 49.2732H43.0188L43.5776 50.7147C44.0051 51.8889 44.7599 52.9323 45.7622 53.7348L46.4222 54.2486C46.7984 54.5335 47.7268 55.0535 47.7268 55.6151H42.9484Z" fill="white" stroke="#263238" stroke-linecap="round" stroke-linejoin="round"/>
<path d="M42.581 48.4951V47.1888C42.581 47.1888 43.3708 46.6293 43.3708 45.8202C43.3708 45.0111 42.7108 44.6991 41.9892 44.9487" stroke="#263238" stroke-linecap="round" stroke-linejoin="round"/>
<path d="M38.9004 52.7007C38.9004 52.7007 40.3678 54.3002 42.2136 54.3272C44.1716 54.3564 46.4728 52.736 46.4728 52.736C46.9982 53.1642 47.5705 53.538 48.18 53.8509C49.2052 54.3792 49.8806 55.153 50.4174 56.4946C51.018 57.9901 52.3402 62.0565 52.3402 62.0565L48.5298 62.2312L49.0512 70.4056H36.3726L37.2306 62.0856H33.5302C33.5302 62.0856 34.76 56.5757 35.3166 55.5357C35.8732 54.4957 38.9004 52.7007 38.9004 52.7007Z" fill="#A1A1A1" stroke="#263238" stroke-linecap="round" stroke-linejoin="round"/>
<path d="M37.2306 62.0775L37.4242 57.7095" stroke="#263238" stroke-linecap="round" stroke-linejoin="round"/>
<path d="M48.5276 62.2314L48.2284 57.9902" stroke="#263238" stroke-linecap="round" stroke-linejoin="round"/>
<path d="M44.6732 54.6729L43.7052 54.0489C42.3026 53.1063 41.2099 51.8085 40.5526 50.3049L39.7452 48.5244H38.4626L37.6552 50.3049C36.9979 51.8085 35.9052 53.1063 34.5026 54.0489L33.5346 54.6729C33.2555 54.8676 33.0299 55.1228 32.8767 55.4171C32.7236 55.7113 32.6474 56.0361 32.6546 56.3639H45.54C45.5487 56.0371 45.4746 55.7131 45.3238 55.4189C45.173 55.1247 44.9499 54.8689 44.6732 54.6729ZM39.4636 55.6151H33.9262C33.9262 55.0535 34.8722 54.5335 35.2462 54.2486L35.9062 53.7348C36.9085 52.9323 37.6633 51.8889 38.0908 50.7147L38.6496 49.2732H39.5296L40.0884 50.7147C40.516 51.8883 41.2698 52.9315 42.2708 53.7348L42.9418 54.2486C43.3158 54.5335 44.2464 55.0535 44.2464 55.6151H39.4636Z" fill="white" stroke="#263238" stroke-linecap="round" stroke-linejoin="round"/>
<path d="M39.0962 48.4951V47.1888C39.0962 47.1888 39.886 46.6293 39.886 45.8202C39.886 45.0111 39.226 44.6991 38.5044 44.9487" stroke="#263238" stroke-linecap="round" stroke-linejoin="round"/>
<path d="M35.42 52.7007C35.42 52.7007 36.8874 54.3002 38.7332 54.3272C40.6912 54.3564 42.9924 52.736 42.9924 52.736C43.5171 53.1641 44.0887 53.5378 44.6974 53.8509C45.7226 54.3792 46.3958 55.153 46.9348 56.4946C47.5354 57.9901 48.8576 62.0565 48.8576 62.0565L45.0472 62.2312L45.5686 70.4056H32.8878L33.7458 62.0856H30.0454C30.0454 62.0856 31.2708 56.5903 31.8296 55.5336C32.3884 54.477 35.42 52.7007 35.42 52.7007Z" fill="white" stroke="#263238" stroke-linecap="round" stroke-linejoin="round"/>
<path d="M33.7458 62.0775L33.9394 57.7095" stroke="#263238" stroke-linecap="round" stroke-linejoin="round"/>
<path d="M45.0428 62.2314L44.7436 57.9902" stroke="#263238" stroke-linecap="round" stroke-linejoin="round"/>
<path d="M48.4 95.9107V47.8086C48.4 47.5593 48.348 47.3125 48.2471 47.0822C48.1461 46.8519 47.9981 46.6427 47.8116 46.4665C47.625 46.2903 47.4036 46.1506 47.1599 46.0554C46.9162 45.9602 46.6551 45.9113 46.3914 45.9116H13.5476C13.0155 45.9116 12.5051 46.1115 12.1289 46.4672C11.7526 46.823 11.5412 47.3055 11.5412 47.8086V95.8358" stroke="#263238" stroke-width="4" stroke-linejoin="round"/>
<path d="M9.4842 54.6729L10.4522 54.0489C11.8548 53.1063 12.9475 51.8085 13.6048 50.3049L14.4122 48.5244H15.6948L16.5 50.3049C17.1573 51.8085 18.25 53.1063 19.6526 54.0489L20.6206 54.6729C20.8997 54.8676 21.1253 55.1228 21.2785 55.4171C21.4316 55.7113 21.5078 56.0361 21.5006 56.3639H8.6108C8.60286 56.0366 8.67803 55.7122 8.82999 55.418C8.98195 55.1238 9.20629 54.8683 9.4842 54.6729ZM14.6938 55.6151H20.24C20.24 55.0535 19.2918 54.5335 18.92 54.2486L18.26 53.7348C17.2526 52.9336 16.4925 51.8902 16.06 50.7147L15.5012 49.2732H14.6212L14.0624 50.7147C13.6349 51.8889 12.8801 52.9323 11.8778 53.7348L11.2178 54.2486C10.8416 54.5335 9.9132 55.0535 9.9132 55.6151H14.6938Z" fill="white" stroke="#263238" stroke-linecap="round" stroke-linejoin="round"/>
<path d="M15.0612 48.4951V47.1888C15.0612 47.1888 14.2714 46.6293 14.2714 45.8202C14.2714 45.0111 14.9314 44.6991 15.653 44.9487" stroke="#263238" stroke-linecap="round" stroke-linejoin="round"/>
<path d="M18.7418 52.7007C18.7418 52.7007 17.2744 54.3002 15.4286 54.3272C13.4706 54.3564 11.1694 52.736 11.1694 52.736C10.6434 53.1643 10.0703 53.5381 9.46 53.8509C8.4348 54.3792 7.75941 55.153 7.2226 56.4946C6.622 57.9901 5.2998 62.0565 5.2998 62.0565L9.1102 62.2312L8.5888 70.4056H21.2696L20.4116 62.0856H24.112C24.112 62.0856 22.88 56.5757 22.3256 55.5357C21.7712 54.4957 18.7418 52.7007 18.7418 52.7007Z" fill="white" stroke="#263238" stroke-linecap="round" stroke-linejoin="round"/>
<path d="M20.4116 62.0775L20.218 57.7095" stroke="#263238" stroke-linecap="round" stroke-linejoin="round"/>
<path d="M9.11459 62.2314L9.41379 57.9902" stroke="#263238" stroke-linecap="round" stroke-linejoin="round"/>
<path d="M11.4576 54.6729L12.4256 54.0489C13.8282 53.1063 14.9209 51.8085 15.5782 50.3049L16.3856 48.5244H17.6682L18.48 50.3049C19.1373 51.8085 20.23 53.1063 21.6326 54.0489L22.6006 54.6729C22.8797 54.8676 23.1054 55.1228 23.2585 55.4171C23.4116 55.7113 23.4878 56.0361 23.4806 56.3639H10.5842C10.5763 56.0366 10.6514 55.7122 10.8034 55.418C10.9554 55.1238 11.1797 54.8683 11.4576 54.6729ZM16.6672 55.6151H22.2046C22.2046 55.0535 21.2564 54.5335 20.8846 54.2486L20.2246 53.7348C19.2229 52.9318 18.4682 51.8885 18.04 50.7147L17.4812 49.2732H16.6012L16.0424 50.7147C15.6149 51.8889 14.8602 52.9323 13.8578 53.7348L13.1978 54.2486C12.8216 54.5335 11.8932 55.0535 11.8932 55.6151H16.6672Z" fill="white" stroke="#263238" stroke-linecap="round" stroke-linejoin="round"/>
<path d="M17.0346 48.4951V47.1888C17.0346 47.1888 16.2448 46.6293 16.2448 45.8202C16.2448 45.0111 16.9048 44.6991 17.6264 44.9487" stroke="#263238" stroke-linecap="round" stroke-linejoin="round"/>
<path d="M20.7152 52.7007C20.7152 52.7007 19.2478 54.3002 17.402 54.3272C15.444 54.3564 13.1428 52.736 13.1428 52.736C12.6188 53.164 12.048 53.5377 11.44 53.8509C10.4126 54.3792 9.73942 55.153 9.20262 56.4946C8.60202 57.9901 7.27762 62.0565 7.27762 62.0565L11.0902 62.2312L10.56 70.4056H23.2364L22.3784 62.0856H26.0788C26.0788 62.0856 24.86 56.5757 24.299 55.5357C23.738 54.4957 20.7152 52.7007 20.7152 52.7007Z" fill="#6B6B6B" stroke="#263238" stroke-linecap="round" stroke-linejoin="round"/>
<path d="M22.385 62.0775L22.1914 57.7095" stroke="#263238" stroke-linecap="round" stroke-linejoin="round"/>
<path d="M11.088 62.2314L11.3872 57.9902" stroke="#263238" stroke-linecap="round" stroke-linejoin="round"/>
<path d="M22.3608 50.3921L18.9266 50.5481V64.455H23.0054L22.3608 50.3921Z" fill="white" stroke="#263238" stroke-linecap="round" stroke-linejoin="round"/>
<path d="M14.9248 54.3877L15.8928 53.7637C17.296 52.8212 18.3895 51.5235 19.0476 50.0197L19.8528 48.2393H21.1354L21.9428 50.0197C22.6001 51.5234 23.6928 52.8211 25.0954 53.7637L26.0634 54.3877C26.3425 54.5824 26.5681 54.8377 26.7213 55.1319C26.8744 55.4262 26.9506 55.7509 26.9434 56.0788H14.0514C14.0435 55.7514 14.1186 55.4271 14.2706 55.1328C14.4226 54.8386 14.6469 54.5831 14.9248 54.3877ZM20.1344 55.3279H25.6718C25.6718 54.7663 24.7258 54.2463 24.3518 53.9593L23.6918 53.4476C22.6901 52.6445 21.9355 51.6013 21.5072 50.4274L20.9484 48.986H20.0684L19.5096 50.4274C19.0785 51.606 18.3183 52.6524 17.3096 53.4559L16.6386 53.9676C16.2646 54.2546 15.334 54.7746 15.334 55.3362L20.1344 55.3279Z" fill="white" stroke="#263238" stroke-linecap="round" stroke-linejoin="round"/>
<path d="M20.5018 48.2102V46.9039C20.5018 46.9039 19.712 46.3423 19.712 45.5332C19.712 44.7241 20.372 44.4142 21.0936 44.6617" stroke="#263238" stroke-linecap="round" stroke-linejoin="round"/>
<path d="M22.3608 50.3919L20.8714 62.8032L19.0476 50.0195C19.0476 50.0195 15.9302 53.0355 14.905 53.5555C13.8798 54.0755 12.947 54.7911 12.6676 56.1992C12.3882 57.6074 10.9076 71.7098 10.9076 71.7098L14.3572 71.8866L14.0338 79.8717H27.9532L27.115 71.5517H30.3776C30.3776 71.5517 28.3272 56.3074 27.7684 55.2487C27.2096 54.1899 22.3608 50.3919 22.3608 50.3919Z" fill="white" stroke="#263238" stroke-linecap="round" stroke-linejoin="round"/>
<path d="M22.3608 50.3921L20.5304 63.6292L20.9704 64.1804L25.0492 52.7508C25.0492 52.7508 23.76 50.7873 22.3608 50.3921Z" fill="white" stroke="#263238" stroke-linecap="round" stroke-linejoin="round"/>
<path d="M19.0476 50.0199L21.549 67.4919L15.8686 52.624C15.8686 52.624 19.0652 49.7266 19.0476 50.0199Z" fill="white" stroke="#263238" stroke-linecap="round" stroke-linejoin="round"/>
<path d="M27.7684 55.2383C27.7684 55.2383 30.4326 67.4832 31.0156 70.3765C31.5986 73.2698 31.8956 77.9498 31.8956 77.9498L26.7982 78.0871L25.3418 57.4327" fill="white"/>
<path d="M27.7684 55.2383C27.7684 55.2383 30.4326 67.4832 31.0156 70.3765C31.5986 73.2698 31.8956 77.9498 31.8956 77.9498L26.7982 78.0871L25.3418 57.4327" stroke="#263238" stroke-linecap="round" stroke-linejoin="round"/>
<path d="M12.9998 55.2383C12.9998 55.2383 10.34 67.4832 9.75262 70.3765C9.16522 73.2698 8.87262 77.9498 8.87262 77.9498L13.97 78.0871L15.4264 57.4327" fill="white"/>
<path d="M12.9998 55.2383C12.9998 55.2383 10.34 67.4832 9.75262 70.3765C9.16522 73.2698 8.87262 77.9498 8.87262 77.9498L13.97 78.0871L15.4264 57.4327" stroke="#263238" stroke-linecap="round" stroke-linejoin="round"/>
<path d="M21.549 67.4834V80.0154" stroke="#263238" stroke-linecap="round" stroke-linejoin="round"/>
<path d="M20.3566 54.6729L21.3246 54.0489C22.7265 53.1056 23.8191 51.8081 24.4772 50.3049L25.2846 48.5244H26.565L27.3724 50.3049C28.0305 51.8087 29.124 53.1064 30.5272 54.0489L31.4952 54.6729C31.7743 54.8676 31.9999 55.1228 32.1531 55.4171C32.3062 55.7113 32.3824 56.0361 32.3752 56.3639H19.4832C19.4753 56.0366 19.5504 55.7122 19.7024 55.418C19.8544 55.1238 20.0787 54.8683 20.3566 54.6729ZM25.5662 55.6151H31.1036C31.1036 55.0535 30.1554 54.5335 29.7836 54.2486L29.1126 53.7348C28.1116 52.9315 27.3578 51.8883 26.9302 50.7147L26.3714 49.2732H25.4914L24.9304 50.7147C24.5037 51.8887 23.7497 52.9321 22.748 53.7348L22.088 54.2486C21.714 54.5335 20.7856 55.0535 20.7856 55.6151H25.5662Z" fill="white" stroke="#263238" stroke-linecap="round" stroke-linejoin="round"/>
<path d="M25.9336 48.4951V47.1888C25.9336 47.1888 25.1438 46.6293 25.1438 45.8202C25.1438 45.0111 25.8038 44.6991 26.5254 44.9487" stroke="#263238" stroke-linecap="round" stroke-linejoin="round"/>
<path d="M27.7926 50.677L26.301 54.7309L24.4772 50.3047C24.4772 50.3047 21.3598 53.3207 20.3346 53.8407C19.3094 54.3607 18.3788 55.0741 18.0994 56.4844C17.82 57.8946 16.3394 71.9928 16.3394 71.9928L19.7868 72.1696L19.4766 80.1444H33.396L32.5578 71.8244H35.8204C35.8204 71.8244 33.7568 56.5759 33.198 55.5359C32.6392 54.4959 27.7926 50.677 27.7926 50.677Z" fill="#263238" stroke="#263238" stroke-linecap="round" stroke-linejoin="round"/>
<path d="M29.1896 51.6465L28.3514 55.9646L26.5804 53.1462L27.7002 50.1489L29.1896 51.6465Z" fill="white" stroke="#263238" stroke-linecap="round" stroke-linejoin="round"/>
<path d="M24.4772 50.3047L26.0216 53.2333L24.4376 56.1412L23.1308 51.2948L24.4772 50.3047Z" fill="white" stroke="#263238" stroke-linecap="round" stroke-linejoin="round"/>
<path d="M19.7758 72.1799L20.5216 58.7847" stroke="#263238" stroke-linecap="round" stroke-linejoin="round"/>
<path d="M32.5468 71.8283L31.24 58.7847" stroke="#263238" stroke-linecap="round" stroke-linejoin="round"/>
<path d="M25.4056 54.6729L26.3758 54.0489C27.7777 53.1056 28.8703 51.8081 29.5284 50.3049L30.3358 48.5244H31.6162L32.4236 50.3049C33.0817 51.8081 34.1743 53.1056 35.5762 54.0489L36.5442 54.6729C36.8236 54.8674 37.0494 55.1225 37.2026 55.4168C37.3557 55.7112 37.4318 56.036 37.4242 56.3639H24.5322C24.5243 56.0366 24.5994 55.7122 24.7514 55.418C24.9034 55.1238 25.1277 54.8683 25.4056 54.6729ZM30.6152 55.6151H36.1526C36.1526 55.0535 35.2066 54.5335 34.8326 54.2486L34.1616 53.7348C33.1599 52.9321 32.4059 51.8887 31.9792 50.7147L31.4204 49.2732H30.5404L29.9816 50.7147C29.5549 51.8887 28.8009 52.9321 27.7992 53.7348L27.1392 54.2486C26.7652 54.5335 25.8368 55.0535 25.8368 55.6151H30.6152Z" fill="white" stroke="#263238" stroke-linecap="round" stroke-linejoin="round"/>
<path d="M30.9826 48.4951V47.1888C30.9826 47.1888 30.1928 46.6293 30.1928 45.8202C30.1928 45.0111 30.8528 44.6991 31.5766 44.9487" stroke="#263238" stroke-linecap="round" stroke-linejoin="round"/>
<path d="M32.8438 50.677L31.3522 54.7309L29.5284 50.3047C29.5284 50.3047 26.411 53.3207 25.3858 53.8407C24.3606 54.3607 23.4278 55.0741 23.1484 56.4844C22.869 57.8946 21.3884 71.9928 21.3884 71.9928L24.838 72.1696L24.5256 80.1444H38.4472L37.6068 71.8244H40.8694C40.8694 71.8244 38.808 56.5759 38.2492 55.5359C37.6904 54.4959 32.8438 50.677 32.8438 50.677Z" fill="#6B6B6B" stroke="#263238" stroke-linecap="round" stroke-linejoin="round"/>
<path d="M34.2408 51.6465L33.4026 55.9646L31.6316 53.1462L32.7492 50.1489L34.2408 51.6465Z" fill="white" stroke="#263238" stroke-linecap="round" stroke-linejoin="round"/>
<path d="M29.5284 50.3047L31.0728 53.2333L29.4866 56.1412L28.182 51.2948L29.5284 50.3047Z" fill="white" stroke="#263238" stroke-linecap="round" stroke-linejoin="round"/>
<path d="M24.827 72.1799L25.5728 58.7847" stroke="#263238" stroke-linecap="round" stroke-linejoin="round"/>
<path d="M37.5958 71.8283L36.2912 58.7847" stroke="#263238" stroke-linecap="round" stroke-linejoin="round"/>
<path d="M30.063 54.6729L31.031 54.0489C32.4336 53.1063 33.5263 51.8085 34.1836 50.3049L34.991 48.5244H36.2736L37.081 50.3049C37.7383 51.8085 38.831 53.1063 40.2336 54.0489L41.2016 54.6729C41.4807 54.8676 41.7063 55.1228 41.8595 55.4171C42.0126 55.7113 42.0888 56.0361 42.0816 56.3639H29.1896C29.1817 56.0366 29.2568 55.7122 29.4088 55.418C29.5608 55.1238 29.7851 54.8683 30.063 54.6729ZM35.2726 55.6151H40.81C40.81 55.0535 39.864 54.5335 39.49 54.2486L38.819 53.7348C37.818 52.9315 37.0642 51.8883 36.6366 50.7147L36.08 49.2732H35.2L34.6412 50.7147C34.2137 51.8889 33.4589 52.9323 32.4566 53.7348L31.7966 54.2486C31.4204 54.5335 30.492 55.0535 30.492 55.6151H35.2726Z" fill="white" stroke="#263238" stroke-linecap="round" stroke-linejoin="round"/>
<path d="M35.64 48.4951V47.1888C35.64 47.1888 34.8502 46.6293 34.8502 45.8202C34.8502 45.0111 35.5102 44.6991 36.2318 44.9487" stroke="#263238" stroke-linecap="round" stroke-linejoin="round"/>
<path d="M39.3206 52.7007C39.3206 52.7007 37.8532 54.3002 36.0074 54.3272C34.0494 54.3564 31.7482 52.736 31.7482 52.736C31.2235 53.1641 30.6519 53.5378 30.0432 53.8509C29.018 54.3792 28.3426 55.153 27.8058 56.4946C27.2052 57.9901 25.883 62.0565 25.883 62.0565L29.6934 62.2312L29.172 70.4056H41.8484L40.9904 62.0856H44.6908C44.6908 62.0856 43.4654 56.5757 42.9 55.5357C42.3346 54.4957 39.3206 52.7007 39.3206 52.7007Z" fill="#A1A1A1" stroke="#263238" stroke-linecap="round" stroke-linejoin="round"/>
<path d="M40.9904 62.0775L40.7968 57.7095" stroke="#263238" stroke-linecap="round" stroke-linejoin="round"/>
<path d="M29.6934 62.2314L29.9926 57.9902" stroke="#263238" stroke-linecap="round" stroke-linejoin="round"/>
<path d="M33.5478 54.6729L34.5158 54.0489C35.9184 53.1063 37.0111 51.8085 37.6684 50.3049L38.4758 48.5244H39.7584L40.5658 50.3049C41.2231 51.8085 42.3158 53.1063 43.7184 54.0489L44.6864 54.6729C44.9655 54.8676 45.1911 55.1228 45.3443 55.4171C45.4974 55.7113 45.5736 56.0361 45.5664 56.3639H32.6744C32.6665 56.0366 32.7416 55.7122 32.8936 55.418C33.0456 55.1238 33.2699 54.8683 33.5478 54.6729ZM38.7574 55.6151H44.2948C44.2948 55.0535 43.3488 54.5335 42.9748 54.2486L42.3148 53.7348C41.3125 52.9323 40.5577 51.8889 40.1302 50.7147L39.5714 49.2732H38.6914L38.1326 50.7147C37.705 51.8883 36.9512 52.9315 35.9502 53.7348L35.2792 54.2486C34.9052 54.5335 33.9746 55.0535 33.9746 55.6151H38.7574Z" fill="white" stroke="#263238" stroke-linecap="round" stroke-linejoin="round"/>
<path d="M39.1248 48.4951V47.1888C39.1248 47.1888 38.335 46.6293 38.335 45.8202C38.335 45.0111 38.995 44.6991 39.7166 44.9487" stroke="#263238" stroke-linecap="round" stroke-linejoin="round"/>
<path d="M42.8054 52.7007C42.8054 52.7007 41.338 54.3002 39.4922 54.3272C37.5342 54.3564 35.233 52.736 35.233 52.736C34.7083 53.1641 34.1367 53.5378 33.528 53.8509C32.5028 54.3792 31.8296 55.153 31.2906 56.4946C30.6922 57.9901 29.3678 62.0565 29.3678 62.0565L33.1782 62.2312L32.6568 70.4056H45.3332L44.4752 62.0856H48.18C48.18 62.0856 46.9502 56.5757 46.3914 55.5357C45.8326 54.4957 42.8054 52.7007 42.8054 52.7007Z" fill="white" stroke="#263238" stroke-linecap="round" stroke-linejoin="round"/>
<path d="M44.4752 62.0775L44.2816 57.7095" stroke="#263238" stroke-linecap="round" stroke-linejoin="round"/>
<path d="M33.1782 62.2314L33.4774 57.9902" stroke="#263238" stroke-linecap="round" stroke-linejoin="round"/>
<path d="M62.1434 55.9395C62.1434 55.9395 61.6924 63.858 61.886 65.9235C62.0796 67.9889 62.7242 71.2233 62.788 72.0761C62.8518 72.9289 63.5624 75.1815 63.9474 76.6521C64.3324 78.1227 67.0406 85.6065 67.6192 87.0063C68.1978 88.4062 68.2396 92.5225 68.2396 92.5225C68.2396 92.5225 65.6612 94.4714 64.8252 94.8979C63.9892 95.3242 63.5998 95.1412 63.7252 95.6903C63.8506 96.2394 68.299 95.7506 69.3308 95.7506C70.3626 95.7506 71.907 95.9337 71.9708 95.2639C72.0346 94.5942 71.1986 92.4622 71.005 91.4866C70.8114 90.5111 70.7718 85.9705 70.5782 83.2291C70.3846 80.4876 70.3868 78.5407 69.4188 76.2257C68.4508 73.9107 67.4872 71.1692 67.4872 71.1692L70.0678 57.8239L62.1434 55.9395Z" fill="white" stroke="#263238" stroke-linecap="round" stroke-linejoin="round"/>
<path d="M68.0592 90.6527C67.9382 89.6876 67.4322 87.7885 67.2166 86.813C66.8888 85.3404 64.3346 78.1124 63.9474 76.6501C63.5602 75.1879 62.8474 72.9332 62.788 72.0741C62.7286 71.2151 62.0796 67.9932 61.886 65.9215C61.6924 63.8498 62.1434 55.9375 62.1434 55.9375L70.0634 57.8261L67.4872 71.1652C67.4872 71.1652 68.453 73.9066 69.4188 76.2217C70.3846 78.5367 70.3868 80.4857 70.5782 83.225C70.7278 85.3425 70.7234 88.8909 70.873 90.4426C69.9702 90.7422 69.0005 90.8146 68.0592 90.6527Z" fill="#263238" stroke="#263238" stroke-linecap="round" stroke-linejoin="round"/>
<path d="M63.7296 95.68C63.5998 95.1309 63.987 95.3139 64.8296 94.8875C65.4698 94.5631 67.122 93.3483 67.8678 92.793C68.1003 92.8549 68.3022 92.9927 68.4376 93.1819C68.5734 93.3918 68.6813 93.6168 68.7588 93.8517L71.588 93.4627C71.808 94.2074 72.0126 94.9187 71.9796 95.2536C71.9158 95.9234 70.3692 95.7403 69.3396 95.7403C68.31 95.7403 63.8572 96.2354 63.7296 95.68Z" fill="#666666" stroke="#263238" stroke-linecap="round" stroke-linejoin="round"/>
<path d="M75.9946 56.9147C75.9946 56.9147 75.5436 60.7523 74.063 64.2238C72.5824 67.6953 71.1502 72.6686 71.1502 72.6686C71.1502 72.6686 73.8144 75.5702 74.3952 78.1889C74.976 80.8076 75.2752 85.6041 75.35 86.2115C75.4248 86.8188 75.9946 88.8926 76.89 89.7475C77.7854 90.6024 78.5004 90.7875 78.1154 91.4531C77.7304 92.1187 75.603 94.6812 75.2158 95.1076C74.8286 95.534 73.2182 95.8377 72.5098 95.8377C71.8014 95.8377 72.2524 95.8377 72.5736 94.7977C72.8948 93.7577 73.282 90.8998 73.282 89.9867C73.282 89.0736 72.1226 85.6624 70.8356 83.5907C69.5486 81.519 67.6126 75.9155 67.034 74.576C66.4554 73.2364 65.681 72.1403 65.681 71.2875C65.681 70.4347 66.3894 62.2728 66.5192 60.8105C66.649 59.3483 66.8404 57.7051 66.8404 57.7051L76.1816 56.1201L75.9946 56.9147Z" fill="white" stroke="#263238" stroke-linecap="round" stroke-linejoin="round"/>
<path d="M72.5164 95.8359C71.808 95.8359 72.259 95.8359 72.5802 94.7959C72.8662 93.8786 73.2028 91.5303 73.2754 90.3697C73.469 90.2116 74.1972 89.6521 74.6416 89.8622C74.9479 90.0071 75.2133 90.2189 75.416 90.4799L76.593 89.4004C76.6844 89.5242 76.7859 89.641 76.8966 89.7498C77.7986 90.6026 78.507 90.7898 78.122 91.4554C77.737 92.121 75.6096 94.6836 75.2224 95.11C74.8352 95.5364 73.2248 95.8359 72.5164 95.8359Z" fill="#666666" stroke="#263238" stroke-linecap="round" stroke-linejoin="round"/>
<path d="M66.5258 60.8129C66.6534 59.3569 66.847 57.7075 66.847 57.7075L76.8328 56.0269L77.0528 57.4829C77.0528 57.4829 76.8878 60.1369 75.4072 63.6105C73.9266 67.0841 71.1524 72.671 71.1524 72.671C71.1524 72.671 73.8166 75.5726 74.3974 78.1913C74.9782 80.8101 75.2774 85.6065 75.3522 86.2139C75.4368 86.7396 75.5746 87.2564 75.7636 87.7573C74.9264 88.2354 73.9869 88.531 73.0136 88.6225C72.5934 87.1665 71.7508 85.0533 70.8444 83.5952C69.5552 81.5152 67.6214 75.92 67.0428 74.5805C66.4642 73.2409 65.6898 72.1448 65.6898 71.292C65.6898 70.4392 66.396 62.2752 66.5258 60.8129Z" fill="#263238" stroke="#263238" stroke-linecap="round" stroke-linejoin="round"/>
<path d="M69.4782 81.0493C68.3584 78.3973 66.6512 75.4333 66.088 73.4053C65.3092 70.6119 66.528 60.813 66.528 60.813" stroke="#7D7D7D" stroke-linecap="round" stroke-linejoin="round"/>
<path d="M70.18 82.7173L69.828 81.8853" stroke="#7D7D7D" stroke-linecap="round" stroke-linejoin="round"/>
<path d="M51.4514 34.6422C51.4514 34.6422 49.8278 33.856 49.4274 33.7499C49.027 33.6438 48.796 33.9912 48.9522 34.091C49.1084 34.1909 49.3636 34.376 49.3636 34.376C49.3636 34.376 48.6266 34.3552 48.807 34.584L49.1678 35.0312C49.1678 35.0312 48.5078 35.1497 48.6772 35.4264C48.8326 35.6211 49.0513 35.7621 49.2998 35.8278C49.2998 35.8278 48.6288 36.0005 48.9258 36.2542C49.2228 36.508 50.105 36.4622 50.105 36.4622C50.3432 36.8964 50.6691 37.2822 51.0642 37.5979C51.474 37.8818 51.9592 38.0525 52.4656 38.0909L53.3764 38.979L54.5952 37.6062L51.4514 34.6422Z" fill="white" stroke="#263238" stroke-linecap="round" stroke-linejoin="round"/>
<path d="M37.8994 33.4524L39.1028 32.9075C40.8495 32.0926 42.318 30.8289 43.34 29.2612L44.5852 27.4038L44.7216 27.4246L45.8854 27.6014L46.0196 27.6222L46.585 29.7563C47.0373 31.5488 48.0148 33.1845 49.4054 34.4758L50.38 35.3598C50.6547 35.6261 50.8579 35.9506 50.9727 36.3063C51.0875 36.662 51.1106 37.0386 51.04 37.4044L44.4048 36.3936L43.241 36.2168L36.6058 35.2059C36.657 34.837 36.8013 34.4851 37.0264 34.18C37.2515 33.8748 37.5509 33.6253 37.8994 33.4524ZM43.5534 35.3952L44.3608 35.5179L49.7574 36.3499C49.863 35.7259 48.9016 34.9771 48.5364 34.5923L47.8764 33.9038C46.9078 32.8332 46.2626 31.5355 46.0086 30.1473L45.6566 28.4376L45.562 28.4251L44.7568 28.3024L44.66 28.2878L43.7602 29.8062C43.0569 31.0485 42.0127 32.0889 40.7374 32.818L39.8904 33.2777C39.4152 33.5336 38.2756 33.9579 38.1678 34.586L43.5534 35.3952Z" fill="white" stroke="#263238" stroke-linecap="round" stroke-linejoin="round"/>
<path d="M45.32 27.483L45.5708 26.027C45.5708 26.027 44.792 25.2657 44.946 24.363C45.1 23.4602 45.8986 23.219 46.662 23.6225" stroke="#263238" stroke-linecap="round" stroke-linejoin="round"/>
<path d="M36.0426 41.8555L33.5214 41.2773C33.5214 41.2773 34.0648 36.6784 35.0218 35.1059C35.8798 33.6957 36.7818 32.9428 38.0314 32.5268C38.7735 32.2804 39.4853 31.9589 40.1544 31.5679C40.1544 31.5679 42.4226 33.7768 44.6226 34.0784C46.695 34.3613 48.6442 32.82 48.6442 32.82C48.6442 32.82 51.6956 35.316 52.1202 36.5952C52.5448 37.8744 52.8704 44.2392 52.8704 44.2392L48.7256 43.6152L49.907 53.0896L49.797 53.0709L49.907 53.333C49.907 53.333 48.5716 52.709 45.9866 52.9482C43.4016 53.1874 40.4976 53.618 39.27 53.3143C38.0424 53.0106 34.2408 51.6503 34.2408 51.6503L36.0426 41.8555Z" fill="#DD8560" stroke="#263238" stroke-linecap="round" stroke-linejoin="round"/>
<path d="M48.7256 43.6092L48.4418 41.5229" stroke="#263238" stroke-linecap="round" stroke-linejoin="round"/>
<path d="M36.0426 41.8559L37.0568 36.8223" stroke="#263238" stroke-linecap="round" stroke-linejoin="round"/>
<path d="M39.9168 32.3628C39.745 33.3949 39.6582 34.438 39.6572 35.4828" stroke="#263238" stroke-linecap="round" stroke-linejoin="round"/>
<path d="M39.3998 32.4854C39.2137 33.0629 39.0841 33.6554 39.0126 34.2554" stroke="#263238" stroke-linecap="round" stroke-linejoin="round"/>
<path d="M46.6708 39.4844C46.7192 39.6778 46.772 39.8692 46.827 40.0564" stroke="#263238" stroke-linecap="round" stroke-linejoin="round"/>
<path d="M45.793 34.6216C45.793 34.6216 46.013 36.5893 46.453 38.6339" stroke="#263238" stroke-linecap="round" stroke-linejoin="round"/>
<path d="M46.5036 34.1948C46.7639 34.875 46.98 35.5696 47.1504 36.2748" stroke="#263238" stroke-linecap="round" stroke-linejoin="round"/>
<path d="M38.2668 50.7021L40.007 38.4946" stroke="#263238" stroke-linecap="round" stroke-linejoin="round"/>
<path d="M38.0006 52.5552L38.104 51.8418" stroke="#263238" stroke-linecap="round" stroke-linejoin="round"/>
<path d="M42.4864 34.0308L42.1322 40.0565" stroke="#263238" stroke-linecap="round" stroke-linejoin="round"/>
<path d="M54.56 37.232C54.56 37.232 53.3698 35.8924 52.899 35.6803C52.4282 35.4681 50.9058 35.1873 50.336 34.8691C49.7662 34.5508 49.6078 34.7193 49.9334 35.1603C50.259 35.6012 51.4118 36.0401 51.4118 36.0401C51.4118 36.0401 51.9046 37.0947 52.4744 37.4129L53.7724 38.1388L54.56 37.232Z" fill="white" stroke="#263238" stroke-linecap="round" stroke-linejoin="round"/>
<path d="M66.1672 37.1383C66.1672 37.1383 63.8968 37.1383 63.5624 37.7062C63.228 38.274 61.7606 41.6831 61.16 42.6399C60.5594 43.5967 60.5594 43.838 60.5594 43.838L54.4852 36.8159L52.36 38.5278C52.36 38.5278 59.4352 49.635 59.9698 49.8242C60.5044 50.0135 63.7736 47.4884 64.174 47.2991C64.5744 47.1098 66.7788 38.0223 66.7788 38.0223C66.7788 38.0223 67.3002 37.5169 66.1672 37.1383Z" fill="#666666" stroke="#263238" stroke-linecap="round" stroke-linejoin="round"/>
<path d="M65.8988 38.0848L73.3788 36.2544C73.3788 36.2544 74.514 42.1866 74.514 44.7824C74.514 47.3782 76.417 57.1834 76.417 57.1834C76.417 57.1834 70.7762 58.7933 67.639 58.7933C64.5018 58.7933 62.4998 57.72 62.4998 57.72C62.4998 57.72 64.0398 52.728 64.1014 50.024C64.163 47.32 63.767 43.6488 64.1014 41.496C64.3036 40.2077 64.9329 39.0133 65.8988 38.0848Z" fill="white" stroke="#263238" stroke-linecap="round" stroke-linejoin="round"/>
<path d="M65.1706 46.7144L67.507 49.8073" stroke="#263238" stroke-linecap="round" stroke-linejoin="round"/>
<path d="M67.595 50.9663L67.9162 51.4093" stroke="#263238" stroke-linecap="round" stroke-linejoin="round"/>
<path d="M65.8724 48.5928L67.21 50.4377" stroke="#263238" stroke-linecap="round" stroke-linejoin="round"/>
<path d="M63.8968 39.6633C63.8968 39.6633 63.6966 40.358 63.4304 41.4937C63.1642 42.6293 63.2302 43.3865 63.3622 46.1009C63.4942 48.8153 63.3622 49.5703 62.4272 51.6545C61.4922 53.7386 58.927 59.0842 58.927 59.0842L61.2634 61.1039C61.2634 61.1039 63.3622 56.0079 64.163 52.8525C64.9638 49.6972 64.9 45.3437 65.164 43.1972C65.428 41.0506 67.6346 37.6477 67.6346 37.6477L68.101 36.8906C67.4727 37.0629 66.8213 37.1477 66.1672 37.1423C65.582 37.1254 64.9972 37.1891 64.4314 37.3316" fill="#666666"/>
<path d="M63.8968 39.6633C63.8968 39.6633 63.6966 40.358 63.4304 41.4937C63.1642 42.6293 63.2302 43.3865 63.3622 46.1009C63.4942 48.8153 63.3622 49.5703 62.4272 51.6545C61.4922 53.7386 58.927 59.0842 58.927 59.0842L61.2634 61.1039C61.2634 61.1039 63.3622 56.0079 64.163 52.8525C64.9638 49.6972 64.9 45.3437 65.164 43.1972C65.428 41.0506 67.6346 37.6477 67.6346 37.6477L68.101 36.8906C67.4727 37.0629 66.8213 37.1477 66.1672 37.1423C65.582 37.1254 64.9972 37.1891 64.4314 37.3316" stroke="#263238" stroke-linecap="round" stroke-linejoin="round"/>
<path d="M72.7738 36.0025C72.7738 36.0025 69.3704 41.6185 68.7038 43.4489C68.0372 45.2793 68.5036 46.3609 68.6356 47.6089C68.7676 48.8569 70.6706 62.0399 70.6706 62.0399C70.6706 62.0399 75.0706 60.7773 76.879 60.145C78.6874 59.5127 79.2814 58.8201 79.2814 58.8201C79.2814 58.8201 76.021 48.4762 76.021 48.2225C76.021 47.9687 78.848 36.4434 78.3816 36.1917C77.9152 35.9401 72.7738 36.0025 72.7738 36.0025Z" fill="#666666" stroke="#263238" stroke-linecap="round" stroke-linejoin="round"/>
<path d="M65.6106 35.5679C65.6106 35.5679 65.703 37.6167 65.2872 38.5777C65.0936 39.0886 64.7782 39.5505 64.3654 39.9276C64.3654 39.9276 66.209 39.0561 66.902 38.3593C67.4271 37.7797 67.8907 37.1527 68.2858 36.4873L67.0406 34.4385L65.6106 35.5679Z" fill="#263238" stroke="#263238" stroke-linecap="round" stroke-linejoin="round"/>
<path d="M62.975 26.7155C62.737 27.4348 62.5713 28.1736 62.48 28.9224C62.4162 29.8168 62.7572 30.006 62.7 30.5427C62.6428 31.0793 61.7936 32.0236 61.919 32.4417C62.0444 32.8598 62.799 33.0969 62.799 33.0969C62.799 33.0969 63.3688 35.1769 63.558 35.7219C63.7472 36.2668 64.5656 36.0796 65.3862 35.8404C65.9859 35.6549 66.5736 35.4361 67.1462 35.1852L67.903 36.9137L72.193 34.946L70.3648 28.082C70.3648 28.082 67.8414 26.2329 66.264 26.2329L62.975 26.7155Z" fill="white" stroke="#263238" stroke-linecap="round" stroke-linejoin="round"/>
<path d="M67.1396 35.1852L68.1758 34.5342L67.5598 35.7551L67.1396 35.1852Z" fill="#263238" stroke="#263238" stroke-linecap="round" stroke-linejoin="round"/>
<path d="M63.305 30.8067C63.305 31.0708 63.4084 31.2851 63.536 31.2851C63.6636 31.2851 63.756 31.0771 63.756 30.8067C63.756 30.5363 63.6548 30.3262 63.536 30.3262C63.4172 30.3262 63.305 30.5404 63.305 30.8067Z" fill="#263238"/>
<path d="M64.3192 29.8455C64.3192 29.8455 63.7186 28.843 62.9354 29.4545" stroke="#263238" stroke-linecap="round" stroke-linejoin="round"/>
<path d="M64.9176 33.2031C64.9176 33.2031 64.295 33.9561 63.5822 33.5962" stroke="#263238" stroke-linecap="round" stroke-linejoin="round"/>
<path d="M69.8984 38.0432C69.8984 38.0432 69.773 38.1493 68.9304 38.4363C67.749 38.8357 67.3618 38.5673 67.3618 38.5673C67.1634 37.7884 67.007 37.0005 66.8932 36.2065C66.847 35.5534 67.0428 35.6574 68.2858 35.4702C69.674 35.2622 71.775 34.4552 72.0984 34.4552C72.4218 34.4552 72.6198 34.424 72.6198 34.8171C72.6198 35.2102 73.0356 36.6475 73.0356 36.6475C72.0429 37.2126 70.9917 37.6803 69.8984 38.0432Z" fill="white" stroke="#263238" stroke-linecap="round" stroke-linejoin="round"/>
<path d="M68.7808 30.7111C68.7808 30.7111 67.9602 30.7111 67.5818 30.4719C67.3279 30.2734 67.15 30.0015 67.0758 29.6981C67.0758 29.6981 64.3632 29.0408 63.1664 27.6181C61.9696 26.1954 61.1468 26.0664 61.7144 25.4112C62.282 24.756 66.1936 23.6807 67.4564 23.2043C68.7192 22.728 70.62 23.5039 72.38 24.8663C74.14 26.2287 74.085 26.4159 74.3358 28.1464C74.5866 29.877 76.2916 35.9007 76.2916 35.9007L74.5316 36.2584C74.5316 36.2584 73.5218 38.1679 71.6936 39.1205C69.8654 40.0731 68.7918 40.1959 68.7918 40.1959C68.7918 40.1959 70.2416 37.1528 70.2416 34.5279C70.2416 31.9029 68.7808 30.7111 68.7808 30.7111Z" fill="#263238" stroke="#263238" stroke-linecap="round" stroke-linejoin="round"/>
<path d="M67.9602 31.2475C67.9602 31.2475 68.464 28.8014 69.663 29.5835C70.862 30.3655 69.41 33.1028 68.97 33.0425C68.53 32.9822 68.1494 32.5059 68.1494 32.5059" fill="white"/>
<path d="M67.9602 31.2475C67.9602 31.2475 68.464 28.8014 69.663 29.5835C70.862 30.3655 69.41 33.1028 68.97 33.0425C68.53 32.9822 68.1494 32.5059 68.1494 32.5059" stroke="#263238" stroke-linecap="round" stroke-linejoin="round"/>
<path d="M91.5596 39.3328C91.5596 39.3328 93.4824 38.9688 93.9312 38.9688C94.38 38.9688 94.5076 39.3847 94.314 39.4534C94.1204 39.522 93.8014 39.6364 93.8014 39.6364C93.8014 39.6364 94.5714 39.8174 94.314 39.9983L93.8014 40.3623C93.8014 40.3623 94.4438 40.666 94.1864 40.9073C93.9658 41.0662 93.6959 41.1517 93.4186 41.1507C93.4186 41.1507 94.0588 41.5147 93.6738 41.6956C93.2888 41.8766 92.3912 41.575 92.3912 41.575C92.0097 41.9575 91.5531 42.2662 91.047 42.4839C90.5347 42.6644 89.9793 42.7062 89.4432 42.6046L88.22 43.2639L87.3862 41.5063L91.5596 39.3328Z" fill="white" stroke="#263238" stroke-linecap="round" stroke-linejoin="round"/>
<path d="M75.911 36.1921C75.911 36.1921 77.6468 35.7511 78.3816 36.1921C79.1164 36.633 79.3166 40.3521 79.3166 40.3521L81.5166 45.211L87.725 41.234L89.727 44.0108C89.727 44.0108 81.7828 50.8914 81.1162 51.1431C80.8909 51.2523 80.6313 51.2805 80.3856 51.2223C80.14 51.1642 79.9251 51.0237 79.7808 50.827C79.5146 50.5129 74.7076 42.8127 74.7076 42.8127" fill="#666666"/>
<path d="M75.911 36.1921C75.911 36.1921 77.6468 35.7511 78.3816 36.1921C79.1164 36.633 79.3166 40.3521 79.3166 40.3521L81.5166 45.211L87.725 41.234L89.727 44.0108C89.727 44.0108 81.7828 50.8914 81.1162 51.1431C80.8909 51.2523 80.6313 51.2805 80.3856 51.2223C80.14 51.1642 79.9251 51.0237 79.7808 50.827C79.5146 50.5129 74.7076 42.8127 74.7076 42.8127" stroke="#263238" stroke-linecap="round" stroke-linejoin="round"/>
<path d="M94.9652 43.1226L91.069 43.2994V59.0782H95.6956L94.9652 43.1226Z" fill="#666666" stroke="#263238" stroke-linecap="round" stroke-linejoin="round"/>
<path d="M86.5282 47.6549L87.6282 46.9373C89.2175 45.8703 90.4571 44.402 91.2054 42.7003L92.1206 40.6807H93.5748L94.49 42.7003C95.2382 44.402 96.4779 45.8703 98.0672 46.9373L99.1672 47.6549C99.4823 47.877 99.7366 48.1671 99.9089 48.5011C100.081 48.8351 100.166 49.2033 100.157 49.5747H85.5382C85.5291 49.2033 85.6143 48.8351 85.7865 48.5011C85.9588 48.1671 86.2131 47.877 86.5282 47.6549ZM92.4396 48.724H98.7228C98.7228 48.0875 97.647 47.4968 97.2224 47.1723L96.4612 46.592C95.3259 45.68 94.471 44.496 93.9862 43.1642L93.3504 41.5293H92.345L91.7092 43.1642C91.2244 44.496 90.3695 45.68 89.2342 46.592L88.473 47.1723C88.0484 47.4968 86.9946 48.0875 86.9946 48.724H92.4396Z" fill="white" stroke="#263238" stroke-linecap="round" stroke-linejoin="round"/>
<path d="M92.8554 40.6472V39.1642C92.8554 39.1642 91.96 38.5277 91.96 37.6105C91.96 36.6932 92.7058 36.3396 93.5286 36.6225" stroke="#263238" stroke-linecap="round" stroke-linejoin="round"/>
<path d="M94.9652 43.1226L93.28 57.2L91.212 42.6982C91.212 42.6982 87.6766 46.1198 86.5128 46.721C85.349 47.3221 84.2908 48.1208 83.974 49.7203C83.6572 51.3198 81.9654 67.3171 81.9654 67.3171L85.877 67.5251L85.525 76.571H101.31L100.36 67.1258H104.06C104.06 67.1258 101.735 49.8285 101.099 48.6283C100.463 47.4282 94.9652 43.1226 94.9652 43.1226Z" fill="#DD8560" stroke="#263238" stroke-linecap="round" stroke-linejoin="round"/>
<path d="M94.9652 43.1226L92.8884 58.1402L93.3834 58.7642L98.0034 45.7995C98.0034 45.7995 96.5492 43.5718 94.9652 43.1226Z" fill="#263238" stroke="#263238" stroke-linecap="round" stroke-linejoin="round"/>
<path d="M91.2054 42.7L94.0434 62.5141L87.5996 45.6411C87.5996 45.6411 91.2252 42.3672 91.2054 42.7Z" fill="#263238" stroke="#263238" stroke-linecap="round" stroke-linejoin="round"/>
<path d="M101.099 48.6221C101.099 48.6221 104.124 62.5144 104.784 65.7946C105.444 69.0747 105.776 74.387 105.776 74.387L99.9922 74.543L98.34 51.1098" fill="#DD8560"/>
<path d="M101.099 48.6221C101.099 48.6221 104.124 62.5144 104.784 65.7946C105.444 69.0747 105.776 74.387 105.776 74.387L99.9922 74.543L98.34 51.1098" stroke="#263238" stroke-linecap="round" stroke-linejoin="round"/>
<path d="M99.8888 74.9297H105.906C106.043 74.9297 106.154 74.8245 106.154 74.6947V73.0764C106.154 72.9466 106.043 72.8414 105.906 72.8414H99.8888C99.7515 72.8414 99.6402 72.9466 99.6402 73.0764V74.6947C99.6402 74.8245 99.7515 74.9297 99.8888 74.9297Z" fill="#263238" stroke="#263238" stroke-linecap="round" stroke-linejoin="round"/>
<path d="M84.3436 48.6221C84.3436 48.6221 81.3208 62.5144 80.6608 65.7946C80.0008 69.0747 79.6686 74.387 79.6686 74.387L85.4524 74.543L87.1046 51.1098" fill="#DD8560"/>
<path d="M84.3436 48.6221C84.3436 48.6221 81.3208 62.5144 80.6608 65.7946C80.0008 69.0747 79.6686 74.387 79.6686 74.387L85.4524 74.543L87.1046 51.1098" stroke="#263238" stroke-linecap="round" stroke-linejoin="round"/>
<path d="M79.4948 74.9297H85.5118C85.6491 74.9297 85.7604 74.8245 85.7604 74.6947V73.0764C85.7604 72.9466 85.6491 72.8414 85.5118 72.8414H79.4948C79.3575 72.8414 79.2462 72.9466 79.2462 73.0764V74.6947C79.2462 74.8245 79.3575 74.9297 79.4948 74.9297Z" fill="#263238" stroke="#263238" stroke-linecap="round" stroke-linejoin="round"/>
<path d="M94.0434 62.5142V76.4876" stroke="#263238" stroke-linecap="round" stroke-linejoin="round"/>
<path d="M88.4136 41.1152C89.023 40.618 89.7754 39.4948 90.0504 39.3908C90.5322 39.2036 92.0722 39.006 92.6596 38.719C93.247 38.432 93.3966 38.6108 93.0424 39.0352C92.6882 39.4595 91.52 39.8318 91.52 39.8318C91.52 39.8318 90.9634 40.8552 90.376 41.1422L89.9866 41.3398" fill="white"/>
<path d="M88.4136 41.1152C89.023 40.618 89.7754 39.4948 90.0504 39.3908C90.5322 39.2036 92.0722 39.006 92.6596 38.719C93.247 38.432 93.3966 38.6108 93.0424 39.0352C92.6882 39.4595 91.52 39.8318 91.52 39.8318C91.52 39.8318 90.9634 40.8552 90.376 41.1422L89.9866 41.3398" stroke="#263238" stroke-linecap="round" stroke-linejoin="round"/>
<path d="M3.73999 95.894H107.8" stroke="#263238" stroke-linecap="round" stroke-linejoin="round"/>
</svg>
