<svg width="139" height="46" viewBox="0 0 139 46" fill="none" xmlns="http://www.w3.org/2000/svg">
<path d="M10.752 45.056C8.95999 45.056 7.33866 44.928 5.88799 44.672C4.52265 44.416 3.49865 44.16 2.81599 43.904C1.87732 43.5627 1.15199 43.136 0.639988 42.624C0.213321 42.0267 -1.19507e-05 41.5147 -1.19507e-05 41.088C-1.19507e-05 40.4907 0.298655 40.192 0.895988 40.192C1.32265 40.192 1.83465 40.448 2.43199 40.96C3.62665 41.984 4.77865 42.5813 5.88799 42.752C6.82666 42.752 8.06399 42.624 9.59999 42.368C11.136 42.0267 12.2027 41.5573 12.8 40.96C13.824 39.936 14.336 38.912 14.336 37.888C14.336 37.2053 14.1227 36.5653 13.696 35.968C13.3547 35.2853 12.8427 34.6453 12.16 34.048C11.0507 33.1093 9.94132 32.1707 8.83199 31.232C7.72265 30.208 6.78399 29.0987 6.01599 27.904C4.82132 26.0267 4.22399 24.192 4.22399 22.4C4.22399 19.6693 5.11999 17.1093 6.91199 14.72C8.78932 12.3307 10.7947 10.368 12.928 8.83199C15.232 7.21066 17.5787 6.39999 19.968 6.39999C21.248 6.39999 22.4427 6.69866 23.552 7.29599C24.6613 7.80799 25.5147 8.66133 26.112 9.856C26.1973 10.0267 26.24 10.24 26.24 10.496C26.24 11.008 26.0693 11.3493 25.728 11.52C25.3867 11.6907 25.1307 11.52 24.96 11.008C24.448 9.64266 23.04 8.96 20.736 8.96C19.3707 8.96 17.8773 9.21599 16.256 9.72799C14.72 10.24 13.4827 10.8373 12.544 11.52C9.64265 13.7387 8.19199 16.5973 8.19199 20.096C8.19199 22.5707 9.00265 24.7893 10.624 26.752C11.7333 28.1173 12.8853 29.3973 14.08 30.592C15.36 31.7013 16.4267 32.8107 17.28 33.92C18.1333 34.944 18.432 35.968 18.176 36.992C17.7493 38.8693 16.512 40.4053 14.464 41.6C12.5013 42.7093 10.6667 43.3493 8.95999 43.52C9.47199 43.6053 10.4107 43.648 11.776 43.648C16.64 43.648 20.7787 42.0267 24.192 38.784C27.6907 35.5413 30.8907 31.7013 33.792 27.264C33.9627 27.008 34.1333 26.88 34.304 26.88C34.4747 26.88 34.56 27.0933 34.56 27.52C34.56 28.032 34.3467 28.6293 33.92 29.312C30.6773 34.2613 27.3067 38.144 23.808 40.96C20.3947 43.6907 16.0427 45.056 10.752 45.056ZM35.206 43.904C33.67 43.904 32.5607 43.392 31.878 42.368C31.1953 41.344 30.854 40.064 30.854 38.528C30.854 37.3333 30.982 36.1813 31.238 35.072C31.4087 34.56 31.8353 33.28 32.518 31.232C33.286 29.184 34.2673 26.9227 35.462 24.448C36.742 21.9733 38.1073 19.84 39.558 18.048C41.0087 16.1707 42.502 15.232 44.038 15.232C44.7207 15.232 45.062 15.4027 45.062 15.744C45.062 16.0853 44.8913 16.4267 44.55 16.768C42.8433 18.816 41.222 21.248 39.686 24.064C38.2353 26.7947 36.998 29.3973 35.974 31.872C35.0353 34.3467 34.4807 36.224 34.31 37.504C34.054 40.2347 34.8647 41.6 36.742 41.6C38.3633 41.6 40.07 40.8747 41.862 39.424C43.7393 37.888 45.5313 35.968 47.238 33.664C49.03 31.2747 50.566 28.8 51.846 26.24C53.2113 23.5947 54.7047 21.12 56.326 18.816C57.9473 16.4267 59.6113 15.232 61.318 15.232C62.0007 15.232 62.342 15.4027 62.342 15.744C62.342 16.0853 62.1713 16.4267 61.83 16.768C60.1233 18.816 58.502 21.248 56.966 24.064C55.5153 26.7947 54.278 29.3973 53.254 31.872C52.3153 34.3467 51.7607 36.224 51.59 37.504C51.334 40.2347 52.1447 41.6 54.022 41.6C55.8993 41.6 57.8193 40.7467 59.782 39.04C61.7447 37.3333 63.5793 35.3707 65.286 33.152C66.9927 30.9333 68.358 29.056 69.382 27.52C69.7233 27.1787 69.9367 27.008 70.022 27.008C70.278 27.008 70.406 27.2213 70.406 27.648C70.406 27.9893 70.278 28.3733 70.022 28.8C68.6567 31.0187 66.9927 33.3227 65.03 35.712C63.1527 38.016 61.1473 39.9787 59.014 41.6C56.8807 43.136 54.7047 43.904 52.486 43.904C50.95 43.904 49.8407 43.392 49.158 42.368C48.4753 41.344 48.134 40.064 48.134 38.528C48.134 37.3333 48.262 36.1813 48.518 35.072L48.774 33.92C47.1527 36.0533 45.446 37.9733 43.654 39.68C41.9473 41.3867 40.2407 42.5387 38.534 43.136C37.254 43.648 36.1447 43.904 35.206 43.904ZM83.756 6.14399C82.5613 6.14399 81.836 5.41866 81.58 3.96799C81.4947 3.28533 81.9213 2.60266 82.86 1.91999C83.7987 1.23733 84.5667 0.767993 85.164 0.511993C85.5907 0.341326 85.932 0.213327 86.188 0.127995C86.444 0.0426598 86.6573 -7.62939e-06 86.828 -7.62939e-06C87.4253 -7.62939e-06 87.724 0.298659 87.724 0.895992C87.724 1.57866 87.468 2.38933 86.956 3.328C86.5293 4.26666 86.316 4.73599 86.316 4.73599C86.2307 5.07733 85.932 5.41866 85.42 5.75999C84.908 6.01599 84.3533 6.14399 83.756 6.14399ZM70.956 43.904C69.42 43.904 68.3107 43.392 67.628 42.368C66.9453 41.344 66.604 40.064 66.604 38.528C66.604 37.3333 66.732 36.1813 66.988 35.072C67.1587 34.56 67.5853 33.28 68.268 31.232C69.036 29.184 70.0173 26.9227 71.212 24.448C72.492 21.9733 73.8573 19.84 75.308 18.048C76.7587 16.1707 78.252 15.232 79.788 15.232C80.4707 15.232 80.812 15.4027 80.812 15.744C80.812 16.0853 80.6413 16.4267 80.3 16.768C78.5933 18.816 76.972 21.248 75.436 24.064C73.9853 26.7947 72.748 29.3973 71.724 31.872C70.7853 34.3467 70.2307 36.224 70.06 37.504C69.804 40.2347 70.6147 41.6 72.492 41.6C72.748 41.6 73.004 41.6 73.26 41.6C73.516 41.5147 73.8147 41.4293 74.156 41.344C75.948 40.7467 77.6973 39.6373 79.404 38.016C81.1107 36.3947 82.6893 34.6027 84.14 32.64C85.5907 30.6773 86.7853 28.9707 87.724 27.52C88.0653 27.1787 88.2787 27.008 88.364 27.008C88.62 27.008 88.748 27.2213 88.748 27.648C88.748 28.0747 88.62 28.5013 88.364 28.928C86.4867 31.8293 84.268 34.688 81.708 37.504C79.2333 40.32 76.7587 42.1973 74.284 43.136C73.004 43.648 71.8947 43.904 70.956 43.904ZM88.947 43.904C87.411 43.904 86.3017 43.392 85.619 42.368C84.9363 41.344 84.595 40.064 84.595 38.528C84.595 37.3333 84.723 36.1813 84.979 35.072C85.235 33.8773 86.0457 31.9147 87.411 29.184C88.7763 26.368 90.2697 23.424 91.891 20.352C91.0377 20.6933 90.099 21.0773 89.075 21.504C88.1363 21.8453 87.4537 22.2293 87.027 22.656C86.6857 22.8267 86.4723 22.912 86.387 22.912C86.131 22.912 86.003 22.7413 86.003 22.4C86.003 21.632 86.4723 20.9067 87.411 20.224C88.3497 19.5413 89.2457 19.072 90.099 18.816C91.0377 18.56 92.1043 18.2613 93.299 17.92C94.2377 16.2133 95.219 14.464 96.243 12.672C97.3523 10.7947 98.3337 9.17333 99.187 7.80799C99.7843 6.95466 100.638 5.88799 101.747 4.60799C102.856 3.24266 104.094 2.13333 105.459 1.27999C106.227 0.767994 107.251 0.511993 108.531 0.511993C109.47 0.511993 109.982 0.68266 110.067 1.02399C108.787 1.36533 107.464 2.21866 106.099 3.58399C104.819 4.94933 103.582 6.52799 102.387 8.31999C101.192 10.112 100.168 11.8187 99.315 13.44C98.4617 14.976 97.8217 16.1707 97.395 17.024C99.187 16.768 100.68 16.64 101.875 16.64C102.558 16.64 103.155 16.6827 103.667 16.768C104.179 16.768 104.606 16.8107 104.947 16.896C105.63 16.9813 105.971 17.1947 105.971 17.536C105.971 17.8773 105.544 18.048 104.691 18.048C104.008 18.048 103.198 18.048 102.259 18.048C101.406 18.048 100.467 18.1333 99.443 18.304C98.675 18.3893 97.8643 18.6453 97.011 19.072C96.243 19.4987 95.731 19.968 95.475 20.48C93.5977 23.8933 91.9337 27.1787 90.483 30.336C89.0323 33.4933 88.2217 35.8827 88.051 37.504C87.795 40.2347 88.6057 41.6 90.483 41.6C92.3603 41.6 94.2377 40.7893 96.115 39.168C98.0777 37.4613 99.9123 35.4987 101.619 33.28C103.326 31.0613 104.691 29.184 105.715 27.648C106.056 27.3067 106.27 27.136 106.355 27.136C106.611 27.136 106.739 27.3493 106.739 27.776C106.739 28.1173 106.611 28.5013 106.355 28.928C104.904 31.1467 103.24 33.408 101.363 35.712C99.4857 38.016 97.4803 39.9787 95.347 41.6C93.299 43.136 91.1657 43.904 88.947 43.904ZM114.627 45.056C112.835 45.056 111.214 44.928 109.763 44.672C108.398 44.416 107.374 44.16 106.691 43.904C105.752 43.5627 105.027 43.136 104.515 42.624C104.088 42.0267 103.875 41.5147 103.875 41.088C103.875 40.4907 104.174 40.192 104.771 40.192C105.198 40.192 105.71 40.448 106.307 40.96C107.502 41.984 108.654 42.5813 109.763 42.752C110.702 42.752 111.939 42.624 113.475 42.368C115.011 42.0267 116.078 41.5573 116.675 40.96C117.699 39.936 118.211 38.912 118.211 37.888C118.211 37.2053 117.998 36.5653 117.571 35.968C117.23 35.2853 116.718 34.6453 116.035 34.048C114.926 33.1093 113.816 32.1707 112.707 31.232C111.598 30.208 110.659 29.0987 109.891 27.904C108.696 26.0267 108.099 24.192 108.099 22.4C108.099 19.6693 108.995 17.1093 110.787 14.72C112.664 12.3307 114.67 10.368 116.803 8.83199C119.107 7.21066 121.454 6.39999 123.843 6.39999C125.123 6.39999 126.318 6.69866 127.427 7.29599C128.536 7.80799 129.39 8.66133 129.987 9.856C130.072 10.0267 130.115 10.24 130.115 10.496C130.115 11.008 129.944 11.3493 129.603 11.52C129.262 11.6907 129.006 11.52 128.835 11.008C128.323 9.64266 126.915 8.96 124.611 8.96C123.246 8.96 121.752 9.21599 120.131 9.72799C118.595 10.24 117.358 10.8373 116.419 11.52C113.518 13.7387 112.067 16.5973 112.067 20.096C112.067 22.5707 112.878 24.7893 114.499 26.752C115.608 28.1173 116.76 29.3973 117.955 30.592C119.235 31.7013 120.302 32.8107 121.155 33.92C122.008 34.944 122.307 35.968 122.051 36.992C121.624 38.8693 120.387 40.4053 118.339 41.6C116.376 42.7093 114.542 43.3493 112.835 43.52C113.347 43.6053 114.286 43.648 115.651 43.648C120.515 43.648 124.654 42.0267 128.067 38.784C131.566 35.5413 134.766 31.7013 137.667 27.264C137.838 27.008 138.008 26.88 138.179 26.88C138.35 26.88 138.435 27.0933 138.435 27.52C138.435 28.032 138.222 28.6293 137.795 29.312C134.552 34.2613 131.182 38.144 127.683 40.96C124.27 43.6907 119.918 45.056 114.627 45.056Z" fill="white"/>
</svg>
